<?xml version="1.0" standalone="no"?>
<!DOCTYPE svg PUBLIC "-//W3C//DTD SVG 20010904//EN"
 "http://www.w3.org/TR/2001/REC-SVG-20010904/DTD/svg10.dtd">
<svg version="1.0" xmlns="http://www.w3.org/2000/svg"
 width="2000.000000pt" height="2000.000000pt" viewBox="0 0 2000.000000 2000.000000"
 preserveAspectRatio="xMidYMid meet">

<g transform="translate(0.000000,2000.000000) scale(0.100000,-0.100000)"
fill="#000000" stroke="none">
<path d="M6740 15041 c-109 -33 -185 -118 -209 -231 -9 -41 -11 -508 -9 -1870
l3 -1815 26 -56 c31 -66 80 -116 146 -149 l48 -25 2765 0 2765 0 48 24 c64 33
115 85 146 151 l26 55 0 1845 0 1845 -26 56 c-36 76 -93 132 -163 158 l-57 21
-2742 -1 c-1508 0 -2753 -4 -2767 -8z m5185 -2071 l0 -1955 -2500 0 -2500 0
-3 1945 c-1 1070 0 1951 3 1958 3 10 509 12 2502 10 l2498 -3 0 -1955z"/>
<path d="M7160 13915 l0 -765 790 0 790 0 0 765 0 765 -790 0 -790 0 0 -765z
m1010 410 c41 -21 60 -53 60 -102 0 -112 -145 -157 -207 -64 -68 101 39 222
147 166z m-270 -505 c96 -137 177 -249 180 -249 3 0 52 58 109 130 82 101 107
127 116 117 15 -17 301 -507 311 -532 7 -19 1 -19 -251 -13 -142 4 -442 7
-667 7 -293 0 -408 3 -408 11 0 14 423 779 430 778 3 0 84 -112 180 -249z"/>
<path d="M9210 14580 l0 -50 790 0 790 0 0 50 0 50 -790 0 -790 0 0 -50z"/>
<path d="M9763 14233 c241 -2 633 -2 870 0 238 1 41 2 -438 2 -478 0 -673 -1
-432 -2z"/>
<path d="M9763 14003 c241 -2 633 -2 870 0 238 1 41 2 -438 2 -478 0 -673 -1
-432 -2z"/>
<path d="M9735 13770 c55 -4 262 -8 460 -8 198 0 405 4 460 8 56 4 -147 7
-460 7 -313 0 -516 -3 -460 -7z"/>
<path d="M9782 13533 c223 -2 592 -2 820 0 227 1 44 2 -407 2 -451 0 -637 -1
-413 -2z"/>
<path d="M9782 13303 c223 -2 592 -2 820 0 227 1 44 2 -407 2 -451 0 -637 -1
-413 -2z"/>
<path d="M9658 13073 c177 -2 467 -2 645 0 177 1 32 2 -323 2 -355 0 -500 -1
-322 -2z"/>
<path d="M7140 12750 l0 -50 790 0 790 0 0 50 0 50 -790 0 -790 0 0 -50z"/>
<path d="M10110 12055 l0 -545 560 0 560 0 0 545 0 545 -560 0 -560 0 0 -545z
m735 270 c68 -67 -25 -174 -103 -119 -46 32 -48 97 -4 130 28 22 80 17 107
-11z m-213 -340 c67 -96 125 -175 128 -174 3 0 37 40 75 89 39 50 74 89 79 87
9 -3 226 -367 226 -379 0 -5 -211 -8 -470 -8 -349 0 -470 3 -470 12 0 17 295
548 304 548 3 0 60 -79 128 -175z"/>
<path d="M7878 12383 c314 -2 830 -2 1145 0 314 1 57 2 -573 2 -630 0 -887 -1
-572 -2z"/>
<path d="M8088 12193 c199 -2 525 -2 725 0 199 1 36 2 -363 2 -399 0 -562 -1
-362 -2z"/>
<path d="M7913 11993 c295 -2 779 -2 1075 0 295 1 53 2 -538 2 -591 0 -833 -1
-537 -2z"/>
<path d="M7913 11803 c295 -2 779 -2 1075 0 295 1 53 2 -538 2 -591 0 -833 -1
-537 -2z"/>
<path d="M7855 11609 c72 -3 339 -7 595 -7 256 0 524 4 595 7 73 4 -188 8
-595 8 -407 0 -668 -4 -595 -8z"/>
<path d="M13207 13369 c-100 -24 -190 -98 -233 -192 l-29 -62 -6 -745 c-3
-410 -8 -1350 -10 -2090 l-4 -1345 31 -65 c40 -82 92 -134 174 -174 l65 -31
876 -3 c869 -3 876 -3 932 18 78 29 149 96 189 178 l33 67 6 1045 c11 1806 10
3111 -2 3155 -17 60 -73 140 -126 180 -100 73 -50 69 -1003 71 -484 2 -871 -2
-893 -7z m519 -152 c19 -22 24 -39 24 -83 0 -45 4 -59 25 -79 l24 -25 329 0
c388 0 368 -6 381 104 12 106 13 106 237 106 160 0 190 -3 238 -20 62 -24 108
-70 139 -139 19 -44 19 -66 13 -2010 -4 -1081 -9 -1992 -12 -2023 -8 -78 -54
-153 -118 -193 l-49 -30 -826 -3 c-498 -1 -851 1 -889 7 -81 13 -144 56 -185
129 l-29 53 1 707 c0 389 3 1290 7 2002 6 1435 3 1365 71 1441 72 79 112 88
391 86 l204 -2 24 -28z"/>
<path d="M13743 12663 c175 -2 459 -2 630 0 172 1 29 2 -318 2 -346 0 -487 -1
-312 -2z"/>
<path d="M13420 11680 l0 -651 668 7 c367 4 668 7 669 8 4 3 -311 536 -317
536 -3 0 -53 -59 -111 -130 -97 -121 -105 -129 -119 -112 -8 10 -89 123 -180
251 -142 201 -166 230 -177 215 -6 -9 -103 -180 -214 -380 -111 -200 -203
-364 -205 -364 -2 0 -4 281 -4 625 l0 625 665 0 664 0 4 -87 3 -88 2 98 2 97
-675 0 -675 0 0 -650z"/>
<path d="M14222 12089 c-97 -28 -92 -182 7 -209 78 -21 141 28 141 108 0 35
-6 49 -29 73 -16 16 -36 29 -44 29 -9 0 -21 2 -29 4 -7 2 -28 0 -46 -5z"/>
<path d="M13280 10510 l0 -50 795 0 795 0 0 50 0 50 -795 0 -795 0 0 -50z"/>
<path d="M13743 10143 c175 -2 459 -2 630 0 172 1 29 2 -318 2 -346 0 -487 -1
-312 -2z"/>
<path d="M13723 9953 c186 -2 488 -2 670 0 183 1 31 2 -338 2 -368 0 -518 -1
-332 -2z"/>
<path d="M13700 9760 c104 -10 625 -10 680 -1 26 5 -125 8 -355 8 -223 0 -367
-3 -325 -7z"/>
<path d="M13723 9563 c186 -2 488 -2 670 0 183 1 31 2 -338 2 -368 0 -518 -1
-332 -2z"/>
<path d="M13723 9373 c186 -2 488 -2 670 0 183 1 31 2 -338 2 -368 0 -518 -1
-332 -2z"/>
<path d="M13743 9153 c186 -2 488 -2 670 0 183 1 31 2 -338 2 -368 0 -518 -1
-332 -2z"/>
<path d="M4343 10446 c-106 -34 -204 -123 -245 -224 l-23 -57 -3 -1651 -2
-1652 -40 -16 c-76 -30 -127 -18 -157 37 -16 29 -18 65 -18 347 l0 315 -25 45
c-32 56 -81 90 -131 90 -81 0 -119 -41 -119 -128 0 -39 -5 -53 -26 -73 -23
-22 -27 -23 -52 -8 -46 25 -118 126 -188 262 -109 213 -174 295 -268 338 -86
39 -216 16 -266 -48 -97 -124 1 -313 292 -559 74 -64 88 -80 88 -105 0 -37
-40 -77 -84 -83 -17 -3 -61 -7 -98 -10 -91 -7 -135 -27 -153 -69 -11 -26 -12
-43 -4 -72 21 -75 181 -200 367 -286 206 -96 216 -103 233 -157 14 -48 0 -86
-43 -113 -43 -26 -77 -22 -198 26 -82 32 -103 36 -157 33 -103 -6 -155 -59
-161 -161 -3 -54 1 -70 30 -125 58 -111 217 -271 363 -364 210 -135 491 -203
683 -165 50 10 72 11 72 3 0 -8 2 -8 8 0 4 6 17 16 30 23 l22 12 -2 -258 c-1
-183 -4 -229 -8 -158 l-6 100 -2 -97 -2 -98 -166 0 -167 0 7 -56 c24 -203 166
-361 368 -409 55 -13 576 -15 4155 -15 2985 0 4106 3 4145 11 188 40 335 183
373 366 24 113 40 103 -160 103 l-175 0 -2 2413 -3 2412 -24 58 c-30 77 -119
168 -198 205 l-58 27 -3880 2 c-3189 1 -3888 -1 -3922 -11z m7837 -2529 l0
-2334 -272 -6 c-353 -9 -7164 -9 -7421 0 l-197 6 0 2327 c0 1280 3 2330 7
2333 3 4 1779 7 3945 7 l3938 0 0 -2333z"/>
<path d="M4772 9764 c-40 -27 -18 -104 29 -104 29 0 59 31 59 60 0 28 -30 60
-55 60 -6 0 -21 -7 -33 -16z"/>
<path d="M5022 9764 c-32 -22 -30 -69 4 -91 24 -15 29 -15 53 -2 36 20 41 71
9 93 -28 20 -38 20 -66 0z"/>
<path d="M5278 9769 c-40 -23 -42 -76 -4 -101 30 -21 86 12 86 50 0 40 -49 70
-82 51z"/>
<path d="M6588 9453 c881 -2 2323 -2 3205 0 881 1 160 2 -1603 2 -1763 0
-2484 -1 -1602 -2z"/>
<path d="M5270 8396 c0 -355 3 -647 8 -649 4 -2 307 -2 673 1 l666 4 -159 272
c-88 149 -161 272 -162 273 -1 2 -51 -58 -111 -132 l-109 -134 -45 63 c-25 35
-104 148 -176 250 -71 101 -133 185 -137 185 -3 1 -99 -167 -213 -371 -114
-205 -211 -377 -216 -383 -6 -5 -8 239 -7 620 l3 630 665 0 665 0 5 -520 5
-520 3 528 2 527 -680 0 -680 0 0 -644z"/>
<path d="M6066 8795 c-55 -29 -75 -83 -52 -139 18 -44 52 -66 101 -66 49 0 83
22 101 66 24 58 -4 122 -63 145 -34 13 -53 11 -87 -6z"/>
<path d="M7210 8760 l0 -50 790 0 790 0 0 50 0 50 -790 0 -790 0 0 -50z"/>
<path d="M8333 8413 c466 -2 1228 -2 1695 0 466 1 84 2 -848 2 -932 0 -1314
-1 -847 -2z"/>
<path d="M8298 8183 c475 -2 1249 -2 1720 0 471 1 83 2 -863 2 -946 0 -1332
-1 -857 -2z"/>
<path d="M8623 7953 c306 -2 808 -2 1115 0 306 1 55 2 -558 2 -613 0 -864 -1
-557 -2z"/>
<path d="M8295 7720 c193 -9 1550 -9 1805 0 107 3 -289 6 -880 6 -591 0 -1007
-3 -925 -6z"/>
<path d="M8358 7483 c452 -2 1192 -2 1645 0 452 1 82 2 -823 2 -905 0 -1275
-1 -822 -2z"/>
<path d="M5150 7280 l0 -50 795 0 795 0 0 50 0 50 -795 0 -795 0 0 -50z"/>
<path d="M7638 7253 c188 -2 496 -2 685 0 188 1 34 2 -343 2 -377 0 -531 -1
-342 -2z"/>
<path d="M7290 6833 c0 -5 214 -7 475 -5 l474 2 4 -152 3 -153 2 158 2 157
-480 0 c-264 0 -480 -3 -480 -7z"/>
<path d="M5648 6823 c177 -2 467 -2 645 0 177 1 32 2 -323 2 -355 0 -500 -1
-322 -2z"/>
<path d="M9258 6803 c314 -2 830 -2 1145 0 314 1 57 2 -573 2 -630 0 -887 -1
-572 -2z"/>
<path d="M7832 6647 c-29 -31 -28 -72 3 -102 48 -48 125 -16 125 51 0 65 -84
98 -128 51z"/>
<path d="M5628 6633 c188 -2 496 -2 685 0 188 1 34 2 -343 2 -377 0 -531 -1
-342 -2z"/>
<path d="M9287 6553 c299 -2 787 -2 1085 0 299 1 55 2 -542 2 -597 0 -841 -1
-543 -2z"/>
<path d="M7459 6223 c-78 -142 -148 -265 -156 -274 -7 -8 -13 -17 -13 -20 0
-5 933 1 938 6 3 3 -200 357 -214 373 -1 2 -35 -37 -76 -87 -40 -49 -76 -90
-80 -90 -3 -1 -55 68 -114 152 -59 83 -115 162 -125 175 -17 22 -18 21 -160
-235z"/>
<path d="M5758 6443 c123 -2 321 -2 440 0 119 1 19 2 -223 2 -242 0 -340 -1
-217 -2z"/>
<path d="M9258 6313 c314 -2 830 -2 1145 0 314 1 57 2 -573 2 -630 0 -887 -1
-572 -2z"/>
<path d="M5648 6243 c177 -2 467 -2 645 0 177 1 32 2 -323 2 -355 0 -500 -1
-322 -2z"/>
<path d="M9258 6063 c314 -2 830 -2 1145 0 314 1 57 2 -573 2 -630 0 -887 -1
-572 -2z"/>
<path d="M5638 6053 c195 -2 510 -2 700 0 191 1 32 2 -353 2 -385 0 -541 -1
-347 -2z"/>
<path d="M4022 5770 c0 -19 2 -27 5 -17 2 9 2 25 0 35 -3 9 -5 1 -5 -18z"/>
<path d="M4032 5700 c0 -19 2 -27 5 -17 2 9 2 25 0 35 -3 9 -5 1 -5 -18z"/>
<path d="M4043 5615 c0 -22 2 -30 4 -17 2 12 2 30 0 40 -3 9 -5 -1 -4 -23z"/>
</g>
</svg>
